<svg width="506" height="222" viewBox="0 0 506 222" fill="none" xmlns="http://www.w3.org/2000/svg">
<path d="M15.12 39.2H57.6C68.256 39.2 77.712 41.312 85.968 45.536C94.224 49.76 100.608 55.712 105.12 63.392C109.728 70.976 112.032 79.712 112.032 89.6C112.032 99.488 109.728 108.272 105.12 115.952C100.608 123.536 94.224 129.44 85.968 133.664C77.712 137.888 68.256 140 57.6 140H15.12V39.2ZM56.736 127.472C64.896 127.472 72.048 125.888 78.192 122.72C84.432 119.552 89.232 115.136 92.592 109.472C95.952 103.712 97.632 97.088 97.632 89.6C97.632 82.112 95.952 75.536 92.592 69.872C89.232 64.112 84.432 59.648 78.192 56.48C72.048 53.312 64.896 51.728 56.736 51.728H29.52V127.472H56.736ZM220.777 39.2V140H206.377V95.072H148.489V140H134.089V39.2H148.489V82.544H206.377V39.2H220.777ZM337.636 39.2V140H325.828L265.348 64.832V140H250.948V39.2H262.756L323.236 114.368V39.2H337.636ZM437.648 89.024H451.472V128.336C446.48 132.464 440.672 135.632 434.047 137.84C427.424 140.048 420.512 141.152 413.312 141.152C403.136 141.152 393.968 138.944 385.808 134.528C377.648 130.016 371.216 123.872 366.512 116.096C361.904 108.224 359.6 99.392 359.6 89.6C359.6 79.808 361.904 70.976 366.512 63.104C371.216 55.232 377.648 49.088 385.808 44.672C394.064 40.256 403.328 38.048 413.6 38.048C421.664 38.048 428.96 39.392 435.488 42.08C442.112 44.672 447.728 48.512 452.336 53.6L443.408 62.528C435.344 54.752 425.6 50.864 414.176 50.864C406.496 50.864 399.584 52.544 393.44 55.904C387.392 59.168 382.64 63.776 379.184 69.728C375.728 75.584 374 82.208 374 89.6C374 96.896 375.728 103.52 379.184 109.472C382.64 115.328 387.392 119.936 393.44 123.296C399.584 126.656 406.448 128.336 414.032 128.336C423.056 128.336 430.928 126.176 437.648 121.856V89.024Z" fill="white"/>
<path d="M474.416 140.864C471.728 140.864 469.424 139.952 467.504 138.128C465.584 136.208 464.624 133.808 464.624 130.928C464.624 128.144 465.584 125.84 467.504 124.016C469.424 122.096 471.728 121.136 474.416 121.136C477.104 121.136 479.36 122.048 481.184 123.872C483.008 125.696 483.92 128.048 483.92 130.928C483.92 133.808 482.96 136.208 481.04 138.128C479.216 139.952 477.008 140.864 474.416 140.864Z" fill="#0688FF"/>
</svg>
